<?xml version="1.0" encoding="utf-8"?>
<!-- Generator: Adobe Illustrator 21.1.0, SVG Export Plug-In . SVG Version: 6.00 Build 0)  -->
<svg version="1.1" id="Layer_1" xmlns="http://www.w3.org/2000/svg" xmlns:xlink="http://www.w3.org/1999/xlink" x="0px" y="0px"
	 viewBox="0 0 408 177" style="enable-background:new 0 0 408 177;" xml:space="preserve">
<style type="text/css">
	.st0{fill:#FFFFFF;stroke:#231F20;stroke-width:2;}
	.st1{fill:#9B5C8F;}
	.st2{fill:#FFFFFF;}
</style>
<g transform="translate(1 1)">
	<path class="st0" d="M251.3,117.4H367v8H251.3V117.4z M39.3,115.9h117.7v8H39.3V115.9z"/>
	<path class="st0" d="M44.7,44h106.9v72H44.7V44z"/>
	<g>
		<path class="st1" d="M68.6,65.9h50.5c3,0,5.5,2.3,5.5,5.2v17.2c0,2.9-2.5,5.2-5.5,5.2h-17.4l2.4,5.4l-10.5-5.4H68.6
			c-3,0-5.5-2.3-5.5-5.2V71.1C63.1,68.2,65.6,65.9,68.6,65.9z"/>
		<path class="st2" d="M66.8,70.6c0.3-0.4,0.9-0.7,1.5-0.7c1.3-0.1,1.9,0.5,2.2,1.6c0.8,4.7,3.6,8.8,4.5,12.1l5.3-9.5
			c0.5-0.9,1.1-1.3,1.8-1.4c1.1-0.1,1.7,0.6,2.1,1.9c0.6,3,1.4,5.6,2.3,7.8c0.6-5.8,1.7-9.9,3.2-12.5c0.3-0.6,0.9-1,1.6-1
			c0.5,0,1.1,0.1,1.5,0.5c0.4,0.3,0.8,0.8,0.8,1.3c0,0.4,0,0.7-0.2,1.1c-1,1.6-1.7,4.4-2.4,8.2c-0.6,3.7-0.9,6.6-0.6,8.6
			c0,0.6,0,1.1-0.3,1.5c-0.3,0.5-0.8,0.8-1.3,0.8c-0.6,0-1.3-0.2-1.9-0.8c-2.3-2.2-4.1-5.4-5.4-9.7c-1.2,2.2-2.4,4.3-3.6,6.5
			c-1.4,2.6-2.7,3.9-3.7,3.9c-0.6,0-3.2-0.5-3.7-1.6c-1.3-3-2.6-8.7-4-17.2C66.3,71.5,66.5,71,66.8,70.6L66.8,70.6z M121.3,74.1
			c-0.9-1.4-2.2-2.3-3.9-2.6c-0.4-0.1-0.9-0.1-1.3-0.1c-2.4,0-4.2,1.1-5.7,3.4c-1.3,1.9-1.9,4.1-1.9,6.4c0,1.7,0.4,3.2,1.2,4.5
			c0.9,1.4,2.2,2.3,3.9,2.6c0.4,0.1,0.9,0.1,1.3,0.1c2.4,0,4.2-1.1,5.7-3.4c1.3-2,1.9-4.1,1.9-6.4C122.5,76.8,122,75.4,121.3,74.1z
			 M118.2,80.4c-0.3,1.5-1,2.6-1.8,3.4c-0.8,0.6-1.4,0.8-1.9,0.7c-0.5-0.1-1.1-0.6-1.4-1.5c-0.3-0.7-0.4-1.4-0.4-2.1
			c0-0.6,0-1.1,0.2-1.7c0.2-1,0.6-1.9,1.3-2.7c0.8-1.1,1.6-1.6,2.5-1.4c0.5,0.1,1.1,0.6,1.4,1.5c0.3,0.7,0.4,1.4,0.4,2.1
			C118.3,79.3,118.3,79.9,118.2,80.4z M106,74.1c-0.9-1.4-2.2-2.3-3.9-2.6c-0.4-0.1-0.9-0.1-1.3-0.1c-2.4,0-4.2,1.1-5.7,3.4
			c-1.3,1.9-1.9,4.1-1.9,6.4c0,1.7,0.4,3.2,1.2,4.5c0.9,1.4,2.2,2.3,3.9,2.6c0.4,0.1,0.9,0.1,1.3,0.1c2.4,0,4.3-1.1,5.7-3.4
			c1.3-2,1.9-4.1,1.9-6.4C107.2,76.8,106.8,75.4,106,74.1L106,74.1z M102.9,80.4c-0.3,1.5-1,2.6-1.8,3.4c-0.8,0.6-1.4,0.8-1.9,0.7
			c-0.5-0.1-1.1-0.6-1.4-1.5c-0.3-0.7-0.4-1.4-0.4-2.1c0-0.6,0-1.1,0.2-1.7c0.2-1,0.6-1.9,1.3-2.7c0.8-1.1,1.6-1.6,2.5-1.4
			c0.5,0.1,1.1,0.6,1.4,1.5c0.3,0.7,0.4,1.4,0.4,2.1C103.1,79.3,103,79.9,102.9,80.4z"/>
	</g>
	<path class="st0" d="M256.7,43.4h104.9v74H256.7V43.4z"/>
</g>
<g>
	<path d="M282.5,92.2c-1.5,0-2.3-0.3-2.3-0.9c0-0.2,0.2-0.4,0.7-0.5c0.2,0,0.4-0.1,0.4-0.1c0.3-0.1,0.4-0.4,0.4-0.7V79.8
		c0-0.5-0.3-0.8-0.8-0.9c-0.1,0-0.2,0-0.3,0c-0.1,0-0.2,0-0.2,0c-0.1,0-0.1,0-0.1,0c0,0,0,0-0.1-0.1c0,0-0.1-0.1-0.1-0.1
		c0-0.1,0-0.2,0-0.3s0-0.2,0-0.3c0-0.1,0.1-0.2,0.2-0.2c0.1-0.1,0.2-0.1,0.2-0.2c0.1,0,0.2-0.1,0.3-0.1c0.1,0,0.3,0,0.4-0.1
		c0.1,0,0.3,0,0.5,0c0.2,0,0.4,0,0.5,0c0.2,0,0.4,0,0.7,0c0.2,0,0.4,0,0.5,0c0.1,0,0.3,0,0.5,0c0.2,0,0.4,0,0.5,0.1
		c0.1,0,0.3,0.1,0.4,0.1c0.1,0,0.3,0.1,0.4,0.2c0.2,0.1,0.3,0.3,0.3,0.5s-0.1,0.3-0.2,0.4c-0.1,0.1-0.3,0.1-0.5,0.1
		c-0.2,0-0.4,0.1-0.4,0.1c-0.3,0.1-0.4,0.4-0.4,0.8V90c0,0.3,0.1,0.5,0.2,0.7c0.2,0.1,0.4,0.2,0.6,0.2c0.2,0,0.4,0,0.5,0.1
		c0.2,0,0.3,0.2,0.3,0.3c0,0.2,0,0.3-0.1,0.4c-0.1,0.1-0.2,0.2-0.3,0.3c-0.1,0.1-0.3,0.1-0.4,0.2c-0.1,0-0.3,0.1-0.6,0.1
		C283.8,92.2,283.2,92.2,282.5,92.2z"/>
	<path d="M290.2,92.2l-0.9,0c-0.9,0-1.5-0.1-1.7-0.4c-0.1-0.1-0.1-0.3-0.1-0.5c0-0.2,0.1-0.3,0.2-0.4c0.1-0.1,0.3-0.1,0.5-0.1
		c0.2,0,0.3-0.1,0.5-0.2c0.1-0.1,0.2-0.3,0.2-0.5v-6c0-0.4-0.3-0.6-0.8-0.7c-0.3-0.1-0.6-0.1-0.6-0.2c-0.1-0.1-0.1-0.2-0.1-0.4
		c0-0.2,0.1-0.3,0.4-0.5c0.4-0.3,0.9-0.4,1.6-0.4c0.6,0,1,0.1,1.2,0.3c0.2,0.2,0.3,0.6,0.3,1.2c1-1.1,2.3-1.6,3.9-1.6
		c1.4,0,2.3,0.4,2.9,1.1c0.6,0.7,0.9,1.9,0.9,3.4v3.8c0,0.4,0.2,0.6,0.7,0.6c0.4,0,0.7,0.2,0.7,0.5c0,0.4-0.2,0.6-0.6,0.7
		c-0.3,0.1-0.8,0.1-1.3,0.1l-0.9,0c-0.9,0-1.5-0.1-1.7-0.4c-0.1-0.1-0.1-0.3-0.1-0.5c0-0.2,0.1-0.3,0.2-0.4c0.1-0.1,0.3-0.1,0.5-0.1
		c0.2,0,0.3-0.1,0.5-0.2c0.1-0.1,0.2-0.3,0.2-0.5v-3c0-1.3-0.1-2.2-0.4-2.8c-0.3-0.7-1-1-2-1c-1.2,0-2,0.3-2.5,1
		c-0.4,0.6-0.6,1.6-0.6,2.9v3c0,0.4,0.2,0.6,0.7,0.6c0.4,0,0.7,0.2,0.7,0.5c0,0.4-0.2,0.6-0.6,0.7C291.2,92.2,290.8,92.2,290.2,92.2
		z"/>
	<path d="M304,92.2l-0.9,0c-0.9,0-1.5-0.1-1.7-0.4c-0.1-0.1-0.1-0.3-0.1-0.5c0-0.2,0.1-0.3,0.2-0.4c0.1-0.1,0.3-0.1,0.5-0.1
		c0.2,0,0.3-0.1,0.5-0.2c0.1-0.1,0.2-0.3,0.2-0.5v-11c0-0.6-0.2-1-0.7-1c0,0-0.1,0-0.2,0c-0.1,0-0.1,0-0.2,0c0,0-0.1,0-0.1,0
		c-0.1,0-0.1,0-0.1,0c0,0-0.1,0-0.1-0.1c0,0-0.1-0.1-0.1-0.3c0-0.2,0.1-0.3,0.3-0.5c0.4-0.3,0.9-0.5,1.6-0.5c0.7,0,1.1,0,1.2,0.1
		c0.2,0.2,0.4,0.4,0.4,0.7v9.1c0.3-0.2,0.9-0.6,1.8-1.3c1.9-1.3,2.8-2.1,2.8-2.2c0-0.2-0.3-0.3-0.8-0.5c0-0.6,0.6-1,1.8-1h1.4
		c1.8,0,2.6,0.1,2.6,0.3c0,0.1-0.1,0.2-0.3,0.4c-0.2,0.2-0.4,0.4-0.6,0.5c-0.5,0-1,0.2-1.6,0.5c-0.6,0.3-1.3,0.8-2.2,1.4l-1.8,1.3
		l3.3,3.5c0.4,0.4,0.8,0.7,1.1,0.9c0.3,0.2,0.6,0.4,0.9,0.4c0.3,0.1,0.5,0.1,0.6,0.1c0.1,0,0.2,0.1,0.3,0.1c0.1,0,0.1,0,0.2,0.1
		c0.1,0,0.2,0.1,0.2,0.1c0.1,0.1,0.2,0.2,0.2,0.4c0,0.3-0.5,0.5-1.6,0.5h-0.5c-0.7,0-1.1,0-1.4-0.1c-0.2-0.1-0.5-0.2-0.8-0.5
		c-1-1-2.3-2.6-3.9-4.8l-1.8,1.2v2c0,0.4,0.2,0.6,0.7,0.6c0.4,0,0.7,0.2,0.7,0.5c0,0.4-0.2,0.6-0.6,0.7
		C305,92.2,304.5,92.2,304,92.2z"/>
	<path d="M316.3,89c-0.7-1.1-1.1-2.5-1.1-4c0-1.5,0.4-2.8,1.1-4c0.8-1.2,1.8-2.1,3-2.7c1.3-0.6,2.7-0.9,4.3-0.9
		c1.3,0,2.6,0.2,3.8,0.6c0.6,0.2,1.1,0.5,1.5,0.9c0.4,0.4,0.6,0.9,0.6,1.4c0,0.5-0.2,0.9-0.5,1.1c-0.3,0.3-0.7,0.4-1.1,0.4
		c-0.4,0-0.7,0-0.9-0.1c-0.1-1.1-0.4-1.9-0.9-2.4c-0.6-0.5-1.4-0.8-2.5-0.8c-1.8,0-3.3,0.6-4.4,1.7c-1.1,1.1-1.6,2.5-1.6,4.3
		c0,1.2,0.3,2.3,0.8,3.3c0.5,1,1.2,1.8,2.2,2.3c0.9,0.6,2,0.9,3.1,0.9c0.8,0,1.5-0.1,2.1-0.3c1.2-0.3,1.7-0.8,1.8-1.3
		c0-0.2,0-0.4,0-0.7v-1.2c0-0.1,0-0.3-0.1-0.5c0-0.3-0.1-0.4-0.1-0.5s-0.1-0.2-0.3-0.3c-0.2-0.1-0.4-0.2-0.6-0.2
		c-0.5-0.1-0.8-0.3-0.8-0.4c0-0.2,0-0.3,0.1-0.4s0.2-0.2,0.3-0.3c0.2-0.1,0.3-0.1,0.5-0.2c0.2,0,0.4-0.1,0.6-0.1c0.4,0,0.9,0,1.6,0
		c0.7,0,1.2,0,1.5,0.1c0.7,0.1,1,0.4,1,0.9c0,0.1-0.1,0.2-0.1,0.2c-0.1,0-0.2,0.1-0.2,0.1c-0.1,0-0.1,0-0.2,0.1
		c-0.6,0.1-0.9,0.3-1,0.6c-0.1,0.3-0.2,0.7-0.2,1.3l0,2.9c-0.3,0.1-0.6,0.2-1.1,0.5c-0.5,0.3-0.8,0.4-1,0.5
		c-1.3,0.6-2.7,0.8-4.2,0.8s-2.8-0.3-4-0.9C318,91,317,90.2,316.3,89z"/>
	<path d="M336.7,92.5c-1.6,0-2.8-0.5-3.8-1.5c-1-1-1.4-2.3-1.4-3.8c0-1,0.3-1.9,0.8-2.7c0.5-0.8,1.2-1.4,2.1-1.8
		c0.9-0.4,1.8-0.6,2.9-0.6c1.5,0,2.8,0.5,3.8,1.4c1,1,1.5,2.2,1.5,3.7c0,1-0.3,2-0.8,2.8c-0.5,0.8-1.2,1.4-2.1,1.9
		C338.7,92.3,337.8,92.5,336.7,92.5z M337.1,91.3c1,0,1.8-0.4,2.4-1.1c0.6-0.7,0.9-1.6,0.9-2.8c0-1.2-0.3-2.2-1-3
		c-0.7-0.8-1.5-1.3-2.6-1.3c-1,0-1.9,0.4-2.4,1.1c-0.6,0.7-0.8,1.7-0.8,2.8c0,1.2,0.3,2.2,1,3C335.2,90.9,336.1,91.3,337.1,91.3z"/>
</g>
<g>
	<path d="M181.4,81.4c0.6,0,1-0.4,1-1c0-6.1,4.9-11,11-11h24v9l13.7-10l-13.7-10v9h-24c-7.2,0-13,5.8-13,13
		C180.4,81,180.8,81.4,181.4,81.4z"/>
	<path d="M229.4,82.4c-0.6,0-1,0.4-1,1c0,6.1-4.9,11-11,11h-24v-9l-13.7,10l13.7,10v-9h24c7.2,0,13-5.8,13-13
		C230.4,82.8,230,82.4,229.4,82.4z"/>
</g>
</svg>
