<svg width="17" xmlns="http://www.w3.org/2000/svg" height="22" viewBox="-5.000383415981874,-4.892000000000003,85.45981865384967,109.999"><g><path d="M75.446,62.086c0-4.681-0.718-9.143-2.263-13.283c-8.21-25.078-29.985-30.055-35.202-48.695  C32.832,18.748,10.651,23.725,2.44,48.803c-1.545,4.141-2.432,8.603-2.432,13.283c-0.084,3.831,0.467,7.3,1.484,10.439  c4.537,15.901,19.134,27.559,36.488,27.582c17.557-0.023,31.696-11.681,36.235-27.582C75.232,69.386,75.53,65.917,75.446,62.086z   M17.898,72.307c5.103,14.612-13.256,14.166-15.111-5.674C0.909,40.596,20.508,26.99,26.201,21.047  c0.274-0.324,0.551-0.637,0.828-0.931c-0.225,0.285-0.51,0.599-0.828,0.931C18.036,30.716,11.391,53.672,17.898,72.307z" stroke="none" fill="#f0f5fa"></path></g></svg>