<svg id="Layer_1" data-name="Layer 1" xmlns="http://www.w3.org/2000/svg" viewBox="0 0 256 255"><title>icon</title><rect width="256" height="255" rx="12" ry="12" fill="#f1f1f1"/><path d="M156.9,94.5a28.9,28.9,0,0,0-1.8-10.2c-6.3-19.2-23-23-26.9-37.2-3.9,14.2-20.9,18.1-27.2,37.2a29,29,0,0,0-1.9,10.2,24,24,0,0,0,1.1,7.9,29.1,29.1,0,0,0,28,21.2A28.8,28.8,0,0,0,156,102.4,24.1,24.1,0,0,0,156.9,94.5Zm-44.1,7.8c3.9,11.1-10.1,10.8-11.6-4.3-1.4-19.9,13.6-30.3,18-34.9l.6-.7-.6.7C112.9,70.4,107.9,88.1,112.8,102.3Z" fill="#419a1c"/><path d="M32.1,188.4q-7.9,0-7.9-3.3,0-1.2,2.5-1.7l1.5-.4a2.5,2.5,0,0,0,1.4-2.6V145.2a2.8,2.8,0,0,0-2.6-3H24.9l-.3-.2-.2-.3a3.2,3.2,0,0,1-.1-.9,2.6,2.6,0,0,1,.2-.9,1.8,1.8,0,0,1,.6-.7l.8-.5,1.1-.3,1.3-.2h9.4l1.8.2,1.4.4,1.2.6a2.2,2.2,0,0,1,1,1.8,1.3,1.3,0,0,1-.7,1.3l-1.9.4-1.5.3a2.6,2.6,0,0,0-1.4,2.7v35.5a2.7,2.7,0,0,0,.8,2.3,3.9,3.9,0,0,0,2.1.8l1.5.2a1.1,1.1,0,0,1,1,1.1,2.9,2.9,0,0,1-.3,1.5,2.4,2.4,0,0,1-1.1.9l-1.4.5-2,.3Z"/><path d="M59.1,188.4H56q-4.7,0-5.9-1.4a2.5,2.5,0,0,1-.5-1.5,1.3,1.3,0,0,1,.7-1.3,3.9,3.9,0,0,1,1.7-.4,2.9,2.9,0,0,0,1.7-.5,2,2,0,0,0,.7-1.7V160.8q0-2.1-2.6-2.6a5.4,5.4,0,0,1-2.2-.6,1.7,1.7,0,0,1-.4-1.2q0-.9,1.2-1.7a10.2,10.2,0,0,1,5.4-1.3q3.3,0,4.2.9t.9,4.1q5-5.7,13.7-5.7,7.1,0,10,3.9t3,11.8v13.1q0,2.1,2.4,2.3t2.4,1.9q0,2-2.3,2.5a22.8,22.8,0,0,1-4.6.4H82.4q-4.7,0-5.9-1.4a2.5,2.5,0,0,1-.5-1.5,1.3,1.3,0,0,1,.7-1.3,3.9,3.9,0,0,1,1.7-.4,2.9,2.9,0,0,0,1.7-.5,2,2,0,0,0,.7-1.7V171q0-6.8-1.5-9.9t-7-3.5q-6.4,0-8.7,3.4t-2.2,10.2v10.4q0,2.1,2.4,2.3t2.4,1.9a2.4,2.4,0,0,1-2.3,2.5h0A21.8,21.8,0,0,1,59.1,188.4Z"/><path d="M107,188.4h-3.1q-4.7,0-5.9-1.4a2.5,2.5,0,0,1-.5-1.5,1.3,1.3,0,0,1,.7-1.3,3.9,3.9,0,0,1,1.7-.4,2.9,2.9,0,0,0,1.7-.5,2,2,0,0,0,.7-1.7V143.1q0-3.3-2.6-3.6H97.6l-.3-.2a1.6,1.6,0,0,1-.2-1,2.5,2.5,0,0,1,1.1-1.8,8.6,8.6,0,0,1,5.6-1.7q3.7,0,4.3.4a2.7,2.7,0,0,1,1.2,2.3v31.9l6.3-4.5q9.7-7,9.7-7.6t-2.8-1.8q.1-3.3,6.1-3.3h5q9.2,0,9.2,1a1.7,1.7,0,0,1-1,1.5,10,10,0,0,1-2.2,1.7,12.2,12.2,0,0,0-5.5,1.7,61.5,61.5,0,0,0-7.6,5.1l-6.3,4.6,11.5,12.1a24.9,24.9,0,0,0,3.7,3.3,9.9,9.9,0,0,0,3.1,1.4l2.2.5,1,.2.8.3.7.4a1.9,1.9,0,0,1,.6,1.4q0,1.8-5.7,1.8h-1.8a23.9,23.9,0,0,1-4.7-.3,6.3,6.3,0,0,1-2.8-1.7q-5.5-5.2-13.4-16.6l-6.2,4.2V182q0,2.1,2.4,2.3t2.4,1.9a2.4,2.4,0,0,1-2.2,2.5A22.6,22.6,0,0,1,107,188.4Z"/><path d="M149.8,177.4a27,27,0,0,1,.2-27.8,25.7,25.7,0,0,1,10.6-9.4,33.6,33.6,0,0,1,14.9-3.2,40,40,0,0,1,13.3,2.2,13.2,13.2,0,0,1,5.3,3.2,6.7,6.7,0,0,1,2.1,4.7,4.7,4.7,0,0,1-1.7,4,6.2,6.2,0,0,1-3.9,1.3,10.3,10.3,0,0,1-3.3-.4q-.4-5.7-3.3-8.5t-8.6-2.8q-9.6,0-15.3,5.8t-5.7,15.1a23.9,23.9,0,0,0,2.7,11.4,20.5,20.5,0,0,0,18.5,11,25.7,25.7,0,0,0,7.3-.9q6.1-1.8,6.1-4.4V172a13.1,13.1,0,0,0-.2-1.9l-.3-1.9q-.1-.5-1-1.1a6.5,6.5,0,0,0-2-.7q-2.8-.6-2.8-1.4a2.4,2.4,0,0,1,1.7-2.4l1.7-.6,2.2-.3h5.6a34.3,34.3,0,0,1,5.2.2q3.4.6,3.4,3.2a.7.7,0,0,1-.5.7l-.8.3-.7.2q-3,.7-3.6,2.1a12,12,0,0,0-.5,4.6v10.1a23.8,23.8,0,0,0-3.9,1.8l-3.6,1.9a37.2,37.2,0,0,1-14.7,3,32.1,32.1,0,0,1-14-3.1A24.1,24.1,0,0,1,149.8,177.4Z"/><path d="M220.9,189.4q-8.3,0-13.2-5.2a18.2,18.2,0,0,1-5.1-13.1,17.1,17.1,0,0,1,2.7-9.5,17.3,17.3,0,0,1,7.2-6.4,22.8,22.8,0,0,1,10.1-2.2,18.4,18.4,0,0,1,13.2,5,17,17,0,0,1,5.2,12.9,17.6,17.6,0,0,1-9.9,16.2A22.5,22.5,0,0,1,220.9,189.4Zm1.4-4a10.3,10.3,0,0,0,8.5-3.7q3-3.7,3-9.8a16.5,16.5,0,0,0-3.5-10.5,10.9,10.9,0,0,0-9-4.4,10.1,10.1,0,0,0-8.5,3.7,15.5,15.5,0,0,0-3,9.8,16.4,16.4,0,0,0,3.4,10.5,10.8,10.8,0,0,0,9.2,4.4Z"/></svg>